<svg xmlns="http://www.w3.org/2000/svg" width="1255.833" height="563.607" viewBox="0 0 1255.833 563.607"><g id="Group_164" data-name="Group 164" transform="translate(-410.416 -255.696)"><g id="Group_1" data-name="Group 1" transform="translate(491.884 340.576)"><path id="Path_1" data-name="Path 1" d="M479.383,534.745V393.807a66.035,66.035,0,0,1,66.256-66.257h257.75v40.978H545.639c-13.786,0-24.893,11.491-24.893,25.279v49.788H803.389v41.362H520.746v49.788a24.844,24.844,0,0,0,24.893,24.894h257.75V601H545.639A66.035,66.035,0,0,1,479.383,534.745Z" transform="translate(-479.383 -327.551)" fill="#0061af"></path><path id="Path_2" data-name="Path 2" d="M792.569,327.551h266.94a65.953,65.953,0,0,1,65.874,66.257V418.7c0,36.385-29.49,66.257-65.874,66.257H851.931V443.595h207.578a24.845,24.845,0,0,0,24.894-24.9V393.807c0-13.788-11.107-25.279-24.894-25.279H833.931V601H792.569Z" transform="translate(-422.612 -327.551)" fill="#0061af"></path><path id="Path_3" data-name="Path 3" d="M1122.406,559.639h257.749a24.844,24.844,0,0,0,24.893-24.894V509.853a24.844,24.844,0,0,0-24.893-24.9H1179.471a66.279,66.279,0,0,1-66.259-66.257V393.807a66.035,66.035,0,0,1,66.259-66.257h257.747v40.978H1179.471c-13.79,0-24.895,11.491-24.895,25.279V418.7a24.843,24.843,0,0,0,24.895,24.9h200.684c36.382,0,65.874,29.873,65.874,66.258v24.893A65.954,65.954,0,0,1,1380.155,601H1122.406Z" transform="translate(-364.49 -327.551)" fill="#0061af"></path></g><g id="Group_2" data-name="Group 2" transform="translate(410.416 739.923)"><path id="Path_4" data-name="Path 4" d="M448.94,709.642H425.359v22.416H453.6v11.658H410.416V666.561H453.5v11.711H425.359v19.714H448.94Z" transform="translate(-410.416 -665.447)" fill="#0061af"></path><path id="Path_5" data-name="Path 5" d="M509.694,743.716H494.749l-24.481-49.228-.317.053v49.175H455V666.561H469.95l24.482,49.28.316-.051V666.561h14.946Z" transform="translate(-402.333 -665.447)" fill="#0061af"></path><path id="Path_6" data-name="Path 6" d="M549.875,709.642H526.293v22.416h28.245v11.658H511.35V666.561h43.082v11.711H526.293v19.714h23.582Z" transform="translate(-392.12 -665.447)" fill="#0061af"></path><path id="Path_7" data-name="Path 7" d="M570.885,712.759v30.948H555.94v-77.1h23.105q11.5,0,18.1,5.986t6.6,16.693a19.016,19.016,0,0,1-2.782,10.387,19.39,19.39,0,0,1-8.029,6.993,14.919,14.919,0,0,1,8.689,6.678A23.321,23.321,0,0,1,604.268,725v5.618a33.066,33.066,0,0,0,.743,6.782,9.078,9.078,0,0,0,2.65,5.195v1.111H592.185q-1.852-1.693-2.357-5.539a58.506,58.506,0,0,1-.5-7.656v-5.4q0-5.881-2.437-9.116a8.236,8.236,0,0,0-6.993-3.234Zm0-11.656h8.054q4.822,0,7.34-2.89t2.515-8.185q0-5.405-2.491-8.584a8.66,8.66,0,0,0-7.258-3.181h-8.16Z" transform="translate(-384.037 -665.439)" fill="#0061af"></path><path id="Path_8" data-name="Path 8" d="M658.534,733.712a27.174,27.174,0,0,1-9.513,7.95Q642.794,745,632.939,745q-12.505,0-20.057-7.286t-7.553-20.692V693.6q0-13.352,7.341-20.666t19.422-7.313q12.609,0,19.023,5.962t6.2,16.984l-.1.316H643.168q0-6.039-2.65-8.8t-8-2.755a10.906,10.906,0,0,0-9.01,4.027q-3.23,4.031-3.231,12.136v23.526q0,8.267,3.286,12.3t9.379,4.024a18.332,18.332,0,0,0,6.835-1.031,9.188,9.188,0,0,0,3.816-2.729V714H631.827V703.667h26.708Z" transform="translate(-375.085 -665.618)" fill="#0061af"></path><path id="Path_9" data-name="Path 9" d="M675.083,743.716H660.194V666.561h14.889Z" transform="translate(-365.14 -665.447)" fill="#0061af"></path><path id="Path_10" data-name="Path 10" d="M719.415,727.023H700.126l-4.347,16.693H680.2l21.885-77.155h15.473l21.885,77.155H723.813ZM703.2,715.258h13.141l-6.411-24.482h-.318Z" transform="translate(-361.512 -665.447)" fill="#0061af"></path><path id="Path_11" data-name="Path 11" d="M770.868,715.79v27.926H755.923V666.561H781.73q11.6,0,18.388,6.81T806.9,691.2q0,11.078-6.783,17.831T781.73,715.79Zm0-11.71H781.73a8.876,8.876,0,0,0,7.656-3.6,15.168,15.168,0,0,0,2.623-9.167,15.717,15.717,0,0,0-2.623-9.352,8.811,8.811,0,0,0-7.656-3.684H770.868Z" transform="translate(-347.787 -665.447)" fill="#0061af"></path><path id="Path_12" data-name="Path 12" d="M861.839,743.716H846.948V711.549H822.1v32.167H807.153V666.561H822.1v33.331h24.852V666.561h14.891Z" transform="translate(-338.501 -665.447)" fill="#0061af"></path><path id="Path_13" data-name="Path 13" d="M899.344,727.023H880.057l-4.347,16.693H860.132l21.884-77.155H897.49l21.884,77.155h-15.63Zm-16.214-11.765h13.142l-6.411-24.482h-.319Z" transform="translate(-328.897 -665.447)" fill="#0061af"></path><path id="Path_14" data-name="Path 14" d="M930.476,712.759v30.948H915.534v-77.1h23.1q11.5,0,18.1,5.986t6.6,16.693a19.016,19.016,0,0,1-2.783,10.387,19.369,19.369,0,0,1-8.028,6.993,14.918,14.918,0,0,1,8.692,6.678A23.358,23.358,0,0,1,963.86,725v5.618a33.2,33.2,0,0,0,.741,6.782,9.076,9.076,0,0,0,2.652,5.195v1.111H951.78q-1.859-1.693-2.358-5.539a58.589,58.589,0,0,1-.5-7.656v-5.4q0-5.881-2.438-9.116a8.243,8.243,0,0,0-7-3.234Zm0-11.656h8.056q4.82,0,7.339-2.89t2.517-8.185q0-5.405-2.49-8.584a8.665,8.665,0,0,0-7.261-3.181h-8.161Z" transform="translate(-318.855 -665.439)" fill="#0061af"></path><path id="Path_15" data-name="Path 15" d="M999.762,723.791h.319l14.466-57.23H1034.1v77.155h-14.839V695.122l-.318-.053-13.936,48.646H994.994l-13.832-48.276-.316.056v48.22h-14.89V666.561H985.4Z" transform="translate(-309.715 -665.447)" fill="#0061af"></path><path id="Path_16" data-name="Path 16" d="M1069.271,727.023h-19.29l-4.344,16.693h-15.579l21.884-77.155h15.476l21.883,77.155h-15.631Zm-16.217-11.765H1066.2l-6.413-24.482h-.317Z" transform="translate(-298.094 -665.447)" fill="#0061af"></path><path id="Path_17" data-name="Path 17" d="M1140.1,723.855a10.642,10.642,0,0,0-2.358-7.284q-2.361-2.678-8.453-5.223-11.872-4.184-17.86-9.485t-5.987-14.838a19.534,19.534,0,0,1,6.838-15.446q6.831-5.963,17.433-5.962,11.236,0,18.07,6.358t6.623,17.063l-.1.32h-14.523q0-5.99-2.673-9.088t-7.658-3.1a8.253,8.253,0,0,0-6.678,2.833,10.624,10.624,0,0,0-2.385,7.075,8.494,8.494,0,0,0,2.706,6.466q2.7,2.542,9.272,5.563,11.176,3.711,16.932,9.379t5.745,15.262q0,9.912-6.728,15.582T1130.452,745a29.434,29.434,0,0,1-18.758-6.119q-7.794-6.119-7.527-18.627l.1-.316h14.574q0,7.261,2.94,10.439t8.666,3.179q4.819,0,7.232-2.649A10.071,10.071,0,0,0,1140.1,723.855Z" transform="translate(-284.663 -665.618)" fill="#0061af"></path><path id="Path_18" data-name="Path 18" d="M1193.966,709.642h-23.582v22.416h28.246v11.658h-43.189V666.561h43.081v11.711h-28.138v19.714h23.582Z" transform="translate(-275.366 -665.447)" fill="#0061af"></path><path id="Path_19" data-name="Path 19" d="M1214.971,712.759v30.948H1200.03v-77.1h23.1q11.5,0,18.1,5.986t6.6,16.693a19.012,19.012,0,0,1-2.782,10.387,19.367,19.367,0,0,1-8.029,6.993,14.916,14.916,0,0,1,8.691,6.678A23.321,23.321,0,0,1,1248.357,725v5.618a33.067,33.067,0,0,0,.743,6.782,9.07,9.07,0,0,0,2.65,5.195v1.111h-15.474q-1.854-1.693-2.358-5.539a58.593,58.593,0,0,1-.5-7.656v-5.4q0-5.881-2.436-9.116a8.243,8.243,0,0,0-7-3.234Zm0-11.656h8.057q4.822,0,7.34-2.89t2.517-8.185q0-5.405-2.49-8.584a8.664,8.664,0,0,0-7.262-3.181h-8.161Z" transform="translate(-267.286 -665.439)" fill="#0061af"></path><path id="Path_20" data-name="Path 20" d="M1274.138,724l.635,3.233h.319l.635-3.073,13.354-57.6h15.739l-22.1,77.155H1267.2l-21.99-77.155h15.736Z" transform="translate(-259.096 -665.447)" fill="#0061af"></path><path id="Path_21" data-name="Path 21" d="M1316.661,743.716h-14.891V666.561h14.891Z" transform="translate(-248.842 -665.447)" fill="#0061af"></path><path id="Path_22" data-name="Path 22" d="M1375.96,719.935l.108.316q.208,12.4-6.333,18.574T1351.057,745q-12.456,0-19.766-7.337t-7.314-20.853V693.916q0-13.46,7.074-20.876t19.1-7.421q12.669,0,19.45,6.146t6.569,18.6l-.1.317h-14.521q0-7.421-2.623-10.388t-8.771-2.967q-5.613,0-8.425,4.054t-2.809,12.426v23q0,8.427,3.02,12.48t9.117,4.053q5.565,0,8-2.941t2.439-10.463Z" transform="translate(-244.817 -665.618)" fill="#0061af"></path><path id="Path_23" data-name="Path 23" d="M1414.537,709.642h-23.581v22.416H1419.2v11.658h-43.189V666.561h43.082v11.711h-28.139v19.714h23.581Z" transform="translate(-235.385 -665.447)" fill="#0061af"></path><path id="Path_24" data-name="Path 24" d="M1454.918,723.855a10.633,10.633,0,0,0-2.358-7.284q-2.358-2.678-8.451-5.223-11.871-4.184-17.858-9.485t-5.989-14.838a19.53,19.53,0,0,1,6.838-15.446q6.833-5.963,17.432-5.962,11.235,0,18.071,6.358t6.623,17.063l-.1.32H1454.6q0-5.99-2.674-9.088t-7.658-3.1a8.256,8.256,0,0,0-6.678,2.833,10.624,10.624,0,0,0-2.385,7.075,8.492,8.492,0,0,0,2.7,6.466q2.7,2.542,9.272,5.563,11.178,3.711,16.932,9.379t5.749,15.262q0,9.912-6.73,15.582T1445.272,745a29.429,29.429,0,0,1-18.756-6.119q-7.793-6.119-7.526-18.627l.1-.316h14.573q0,7.261,2.942,10.439t8.662,3.179q4.822,0,7.235-2.649A10.075,10.075,0,0,0,1454.918,723.855Z" transform="translate(-227.596 -665.618)" fill="#0061af"></path></g><path id="Rectangle_1" data-name="Rectangle 1" d="M-11.487-11.487H1242.729V435.049H-11.487ZM1215.591,15.651H15.651v392.26h1199.94Z" transform="translate(423.52 267.183)" fill="#0061af"></path></g></svg>